<svg width="290.9199951171875px" height="124.439990234375px" xmlns="http://www.w3.org/2000/svg" viewBox="104.54000244140624 12.780004882812499 290.9199951171875 124.439990234375" style="background:#e00" preserveAspectRatio="xMidYMid"><defs><filter id="editing-lego" x="-100%" y="-100%" width="300%" height="300%"><feFlood flood-color="#000" result="f1"></feFlood><feFlood flood-color="#ff0" result="f2"></feFlood><feMorphology operator="dilate" radius="3" in="SourceAlpha"></feMorphology><feConvolveMatrix order="5,5" divisor="1" result="cm1" kernelMatrix="0 1 1 1 0  1 0 0 0 1  1 0 0 0 1  1 0 0 0 1  0 1 1 1 0"></feConvolveMatrix><feComposite operator="in" in="f1" in2="cm1" result="c1"></feComposite><feMorphology operator="dilate" radius="3"></feMorphology><feConvolveMatrix order="5,5" divisor="1" result="cm2" kernelMatrix="0 1 1 1 0  1 0 0 0 1  1 0 0 0 1  1 0 0 0 1  0 1 1 1 0"></feConvolveMatrix><feComposite operator="in" in="f2" in2="cm2" result="c2"></feComposite><feMerge><feMergeNode in="c2"></feMergeNode><feMergeNode in="c1"></feMergeNode><feMergeNode in="SourceGraphic"></feMergeNode></feMerge></filter></defs><g filter="url(#editing-lego)"><g transform="translate(151.8338195681572, 99)"><path d="M33.15-16.83L33.15-16.83L33.15-16.83Q33.86-15.49 33.86-12.86L33.86-12.86L33.86-12.86Q33.86-10.24 31.90-8.42L31.90-8.42L31.90-8.42Q29.95-6.59 25.66-6.59L25.66-6.59L25.28-6.59L24.26 0L24.26 0Q22.53 1.28 19.46 1.28L19.46 1.28L19.46 1.28Q15.49 1.28 14.21-1.15L14.21-1.15L14.21-1.15Q13.70-2.05 13.70-2.82L13.70-2.82L13.70-2.82Q13.70-3.71 13.82-4.74L13.82-4.74L14.27-7.17L-0.45-8.70L-0.45-16.77L23.49-43.58L23.49-43.52L23.55-43.58L32.45-42.62L32.45-42.62Q29.44-30.34 26.88-16.19L26.88-16.19L28.35-16.19L28.35-16.19Q32-16.19 33.15-16.83ZM20.29-32.83L6.40-16.64L16.06-16.32L16.06-16.32Q18.18-25.73 20.29-32.83L20.29-32.83ZM68.42-26.62L68.42-26.62L68.42-26.62Q68.42-23.94 66.18-22.27L66.18-22.27L66.18-22.27Q63.94-20.61 60.29-20.61L60.29-20.61L60.29-20.61Q58.75-20.61 57.86-21.06L57.86-21.06L57.86-21.06Q58.56-22.72 58.78-24.80L58.78-24.80L58.78-24.80Q59.01-26.88 59.01-27.46L59.01-27.46L59.01-27.46Q59.01-30.14 57.15-30.14L57.15-30.14L57.15-30.14Q55.87-30.14 54.43-28.54L54.43-28.54L54.43-28.54Q52.99-26.94 51.78-24.45L51.78-24.45L51.78-24.45Q49.09-18.69 49.09-12.86L49.09-12.86L49.09-12.86Q49.09-9.66 50.30-8.22L50.30-8.22L50.30-8.22Q51.52-6.78 54.21-6.78L54.21-6.78L54.21-6.78Q57.92-6.78 60.86-9.86L60.86-9.86L60.86-9.86Q61.70-10.82 62.14-11.90L62.14-11.90L62.14-11.90Q64.58-10.62 64.58-7.10L64.58-7.10L64.58-7.10Q64.58-3.52 60.61-1.15L60.61-1.15L60.61-1.15Q56.51 1.28 49.98 1.28L49.98 1.28L49.98 1.28Q36.99 1.28 36.99-12.48L36.99-12.48L36.99-12.48Q36.99-22.53 42.69-28.29L42.69-28.29L42.69-28.29Q48.19-33.92 58.30-33.92L58.30-33.92L58.30-33.92Q68.42-33.92 68.42-26.62ZM90.18-17.98L90.18-17.98L90.18-17.98Q92.48-22.08 92.48-26.24L92.48-26.24L92.48-26.24Q92.48-28.99 90.50-28.99L90.50-28.99L90.50-28.99Q88.96-28.99 87.36-26.37L87.36-26.37L87.36-26.37Q85.70-23.74 85.18-20.35L85.18-20.35L81.86 0L68.61 1.28L75.14-32.64L85.70-33.92L84.54-27.46L84.54-27.46Q87.68-33.92 94.72-33.92L94.72-33.92L94.72-33.92Q98.43-33.92 100.45-32L100.45-32L100.45-32Q102.46-30.08 102.46-26.14L102.46-26.14L102.46-26.14Q102.46-22.21 99.87-19.71L99.87-19.71L99.87-19.71Q97.28-17.22 92.86-17.22L92.86-17.22L92.86-17.22Q90.94-17.22 90.18-17.98ZM106.27-1.92L106.27-1.92L106.27-1.92Q104.77-3.58 104.10-6.21L104.10-6.21L104.10-6.21Q103.42-8.83 103.42-13.12L103.42-13.12L103.42-13.12Q103.42-17.41 104.90-21.31L104.90-21.31L104.90-21.31Q106.37-25.22 109.06-28.03L109.06-28.03L109.06-28.03Q114.56-33.92 123.65-33.92L123.65-33.92L123.65-33.92Q126.91-33.92 129.28-32.83L129.28-32.83L140.22-33.92L135.49-8.96L135.49-8.96Q135.30-8.19 135.30-6.78L135.30-6.78L135.30-6.78Q135.30-5.38 136.16-4.48L136.16-4.48L136.16-4.48Q137.02-3.58 138.30-3.46L138.30-3.46L138.30-3.46Q137.66-1.28 135.33 0L135.33 0L135.33 0Q132.99 1.28 130.37 1.28L130.37 1.28L130.37 1.28Q127.74 1.28 125.98 0.29L125.98 0.29L125.98 0.29Q124.22-0.70 123.71-2.37L123.71-2.37L123.71-2.37Q122.69-0.77 120.51 0.26L120.51 0.26L120.51 0.26Q118.34 1.28 115.42 1.28L115.42 1.28L115.42 1.28Q112.51 1.28 110.14 0.51L110.14 0.51L110.14 0.51Q107.78-0.26 106.27-1.92ZM119.78-27.90L119.78-27.90L119.78-27.90Q119.04-26.75 118.40-24.80L118.40-24.80L118.40-24.80Q117.76-22.85 116.70-17.63L116.70-17.63L116.70-17.63Q115.65-12.42 115.65-8.70L115.65-8.70L115.65-8.70Q115.65-4.99 116.22-3.90L116.22-3.90L116.22-3.90Q116.80-2.82 117.82-2.82L117.82-2.82L117.82-2.82Q119.87-2.82 121.38-4.77L121.38-4.77L121.38-4.77Q122.88-6.72 123.46-10.18L123.46-10.18L126.85-28.93L126.85-28.93Q125.50-30.08 123.94-30.08L123.94-30.08L123.94-30.08Q122.37-30.08 121.44-29.57L121.44-29.57L121.44-29.57Q120.51-29.06 119.78-27.90ZM159.04-3.52L159.04-3.52L159.04-3.52Q157.06 1.28 150.72 1.28L150.72 1.28L150.72 1.28Q147.46 1.28 145.41-0.96L145.41-0.96L145.41-0.96Q143.68-2.94 143.68-4.93L143.68-4.93L143.68-4.93Q143.68-10.11 146.05-20.22L146.05-20.22L148.42-32.64L161.41-33.92L157.50-13.70L157.50-13.70Q156.42-8.96 156.42-7.30L156.42-7.30L156.42-7.30Q156.42-3.65 159.04-3.52ZM149.57-41.54L149.57-41.54L149.57-41.54Q149.57-44.03 151.65-45.38L151.65-45.38L151.65-45.38Q153.73-46.72 156.74-46.72L156.74-46.72L156.74-46.72Q159.74-46.72 161.57-45.38L161.57-45.38L161.57-45.38Q163.39-44.03 163.39-41.54L163.39-41.54L163.39-41.54Q163.39-39.04 161.38-37.76L161.38-37.76L161.38-37.76Q159.36-36.48 156.35-36.48L156.35-36.48L156.35-36.48Q153.34-36.48 151.46-37.76L151.46-37.76L151.46-37.76Q149.57-39.04 149.57-41.54ZM195.90-26.62L195.90-26.62L195.90-26.62Q195.90-23.94 193.66-22.27L193.66-22.27L193.66-22.27Q191.42-20.61 187.78-20.61L187.78-20.61L187.78-20.61Q186.24-20.61 185.34-21.06L185.34-21.06L185.34-21.06Q186.05-22.72 186.27-24.80L186.27-24.80L186.27-24.80Q186.50-26.88 186.50-27.46L186.50-27.46L186.50-27.46Q186.50-30.14 184.64-30.14L184.64-30.14L184.64-30.14Q183.36-30.14 181.92-28.54L181.92-28.54L181.92-28.54Q180.48-26.94 179.26-24.45L179.26-24.45L179.26-24.45Q176.58-18.69 176.58-12.86L176.58-12.86L176.58-12.86Q176.58-9.66 177.79-8.22L177.79-8.22L177.79-8.22Q179.01-6.78 181.70-6.78L181.70-6.78L181.70-6.78Q185.41-6.78 188.35-9.86L188.35-9.86L188.35-9.86Q189.18-10.82 189.63-11.90L189.63-11.90L189.63-11.90Q192.06-10.62 192.06-7.10L192.06-7.10L192.06-7.10Q192.06-3.52 188.10-1.15L188.10-1.15L188.10-1.15Q184.00 1.28 177.47 1.28L177.47 1.28L177.47 1.28Q164.48 1.28 164.48-12.48L164.48-12.48L164.48-12.48Q164.48-22.53 170.18-28.29L170.18-28.29L170.18-28.29Q175.68-33.92 185.79-33.92L185.79-33.92L185.79-33.92Q195.90-33.92 195.90-26.62Z" fill="#fff"></path></g></g><style>text {
  font-size: 64px;
  font-family: Arial Black;
  dominant-baseline: central;
  text-anchor: middle;
}</style></svg>